<svg xmlns="http://www.w3.org/2000/svg" width="32" height="32" viewBox="0 0 32 32">
  <defs>
    <linearGradient id="gradient" x1="0%" y1="0%" x2="100%" y2="100%">
      <stop offset="0%" stop-color="#9C2C00" />
      <stop offset="100%" stop-color="#FF9933" />
    </linearGradient>
  </defs>
  <g>
    <!-- Coffee Cup -->
    <path d="M8 10C8 8.89543 8.89543 8 10 8H22C23.1046 8 24 8.89543 24 10V22C24 25.3137 21.3137 28 18 28H14C10.6863 28 8 25.3137 8 22V10Z" fill="url(#gradient)" />
    <!-- Cup Handle -->
    <path d="M24 16C24 14.3431 25.3431 13 27 13C28.6569 13 30 14.3431 30 16C30 17.6569 28.6569 19 27 19H24V16Z" fill="url(#gradient)" />
    <!-- Steam -->
    <path d="M14 6C14 4.89543 14.8954 4 16 4C17.1046 4 18 4.89543 18 6V8H14V6Z" fill="url(#gradient)" />
    <!-- Steam puff 1 -->
    <circle cx="16" cy="2" r="2" fill="url(#gradient)" />
    <!-- Sparkle -->
    <path d="M24 4L25 6L27 7L25 8L24 10L23 8L21 7L23 6L24 4Z" fill="#FFD700" />
  </g>
</svg> 